<svg xmlns="http://www.w3.org/2000/svg" width="1100" height="736" viewBox="0 0 1100 736" preserveAspectRatio="none">
            <!-- https://grabient.com/HQBgrAzANKAsAcMT0cAjLAnDNYDsOsATDEUSKWicGWlBMHmtA3kS8AGyYRA?style=linearSwatches&steps=13 -->
            <defs>
              <clipPath id="bounds">
                <rect x="0" y="0" width="1100" height="736" />
              </clipPath>
            </defs>
            <g clip-path="url(#bounds)"><path d="M 0.000,1029.758 L 0.000,-293.758 L 84.615,-293.758 L 84.615,1029.758 Z" fill="#05050a" fill-opacity="1.000" /><path d="M 84.615,1029.758 L 84.615,-293.758 L 169.231,-293.758 L 169.231,1029.758 Z" fill="#090a0e" fill-opacity="1.000" /><path d="M 169.231,1029.758 L 169.231,-293.758 L 253.846,-293.758 L 253.846,1029.758 Z" fill="#0d0e12" fill-opacity="1.000" /><path d="M 253.846,1029.758 L 253.846,-293.758 L 338.462,-293.758 L 338.462,1029.758 Z" fill="#121316" fill-opacity="1.000" /><path d="M 338.462,1029.758 L 338.462,-293.758 L 423.077,-293.758 L 423.077,1029.758 Z" fill="#16171a" fill-opacity="1.000" /><path d="M 423.077,1029.758 L 423.077,-293.758 L 507.692,-293.758 L 507.692,1029.758 Z" fill="#1a1b1e" fill-opacity="1.000" /><path d="M 507.692,1029.758 L 507.692,-293.758 L 592.308,-293.758 L 592.308,1029.758 Z" fill="#1e1f22" fill-opacity="1.000" /><path d="M 592.308,1029.758 L 592.308,-293.758 L 676.923,-293.758 L 676.923,1029.758 Z" fill="#222326" fill-opacity="1.000" /><path d="M 676.923,1029.758 L 676.923,-293.758 L 761.538,-293.758 L 761.538,1029.758 Z" fill="#26272a" fill-opacity="1.000" /><path d="M 761.538,1029.758 L 761.538,-293.758 L 846.154,-293.758 L 846.154,1029.758 Z" fill="#292a2d" fill-opacity="1.000" /><path d="M 846.154,1029.758 L 846.154,-293.758 L 930.769,-293.758 L 930.769,1029.758 Z" fill="#2c2d30" fill-opacity="1.000" /><path d="M 930.769,1029.758 L 930.769,-293.758 L 1015.385,-293.758 L 1015.385,1029.758 Z" fill="#2e2f33" fill-opacity="1.000" /><path d="M 1015.385,1029.758 L 1015.385,-293.758 L 1100.000,-293.758 L 1100.000,1029.758 Z" fill="#303135" fill-opacity="1.000" /></g>
          </svg>